<?xml version="1.0" encoding="UTF-8"?>
<svg xmlns="http://www.w3.org/2000/svg" viewBox="0 0 64 64">
  <g>
    <path fill="#b0d9ea" stroke="#073a56" stroke-miterlimit="10" stroke-width=".5" d="M14.41,30.62c-3.05-.45-5.72-2.52-7.32-5.68-2.87-5.67-1.39-13.11,3.32-16.57,4.7-3.46,10.87-1.67,13.74,4,1.22,2.41,1.7,5.28,1.36,8.07l-.67-.12c.32-2.6-.13-5.28-1.26-7.52-2.68-5.29-8.43-6.96-12.81-3.73-4.38,3.23-5.77,10.16-3.09,15.45,1.49,2.95,3.98,4.88,6.82,5.3l-.08.81Z"/>
    <path fill="#b0d9ea" stroke="#073a56" stroke-miterlimit="10" stroke-width=".5" class="st0" d="M15.91,34.77c-4.74.12-9.22-2.84-11.69-7.71-1.86-3.67-2.42-8-1.59-12.19.84-4.19,2.97-7.73,6.02-9.97,3.04-2.24,6.63-2.92,10.1-1.91,3.47,1.01,6.4,3.59,8.26,7.27,1.73,3.41,2.34,7.45,1.73,11.38l-1.33-.3c.55-3.53,0-7.16-1.55-10.23-1.67-3.3-4.31-5.62-7.43-6.53-3.12-.91-6.34-.3-9.08,1.72-2.74,2.02-4.66,5.2-5.41,8.96-.75,3.76-.25,7.65,1.43,10.96,2.22,4.38,6.25,7.04,10.51,6.94l.03,1.63Z"/>
    <path fill="#b0d9ea" stroke="#073a56" stroke-miterlimit="10" stroke-width=".5" class="st0" d="M12.86,25.93c-1.2-.66-2.21-1.74-2.9-3.1-.92-1.82-1.2-3.97-.79-6.05s1.47-3.84,2.99-4.95c1.51-1.11,3.29-1.45,5.01-.95,1.72.5,3.18,1.78,4.1,3.6.43.85.72,1.77.87,2.73l-.5.11c-.13-.89-.4-1.74-.8-2.53-.85-1.68-2.2-2.87-3.79-3.33-1.59-.46-3.23-.15-4.63.88-1.4,1.03-2.38,2.65-2.76,4.57-.38,1.92-.13,3.9.73,5.59.64,1.26,1.57,2.25,2.68,2.87l-.21.56Z"/>
  </g>
  <g>
    <path d="M42.21,16.77c-.13.07-.25.18-.37.33-.12.14-.21.28-.27.43-.43.69-.73,1.43-.87,2.2-.97-.75-2.06-1.18-3.41-.88-2.07.46-3.32,2.31-3.64,4.42-.92-.73-1.95-1.18-3.21-.99-2.14.31-3.49,2.11-3.9,4.24-.35-.43-.71-.86-1.06-1.28-1.31-1.58-2.71-3.87-4.41-4.87-1.08-.64-2.22-.72-3.25-.38l-.46-.55-1.89,2.28h.01c-.93,1.26-1.44,2.98-1.13,4.87.41,2.46,2.34,4.21,3.73,5.89,1.57,1.89,3.14,3.79,4.71,5.68.01.01.03.02.04.03,2.8,3.38,5.61,6.77,8.41,10.15-2.1-.36-4.14-.1-5.49,2.33-1.4,2.53-.75,5.92,1.23,7.7.94.84,1.96,1.09,3.05,1.39,3.16.86,6.32,1.72,9.47,2.59,2.47.68,4.96,1.58,7.51,1.66,9.05.29,16.93-10.12,15.46-20.94-.65-4.76-2.78-8.52-5.19-12.19-2.32-3.53-4.64-7.07-6.96-10.6-.66-1-1.27-2.1-1.99-3.03-1.65-2.14-4.29-2.12-6.13-.46Z"/>
    <path d="M43.55,15.15c-.13.07-.25.18-.37.33-.12.14-.21.28-.27.43-.43.69-.73,1.43-.87,2.2-.97-.75-2.06-1.18-3.41-.88-2.07.46-3.32,2.31-3.64,4.42-.92-.73-1.95-1.18-3.21-.99-2.14.31-3.49,2.11-3.9,4.24-.35-.43-.71-.86-1.06-1.28-1.31-1.58-2.71-3.87-4.41-4.87-3.46-2.04-7.47,1.63-6.71,6.21.41,2.46,2.34,4.21,3.73,5.89,1.57,1.89,3.14,3.79,4.71,5.68.01.01.03.02.04.03,2.8,3.38,5.61,6.77,8.41,10.15-2.1-.36-4.14-.1-5.49,2.33-1.4,2.53-.75,5.92,1.23,7.7.94.84,1.96,1.09,3.05,1.39,3.16.86,6.32,1.72,9.47,2.59,2.47.68,4.96,1.58,7.51,1.66,9.05.29,16.93-10.12,15.46-20.94-.65-4.76-2.78-8.52-5.19-12.19-2.32-3.53-4.64-7.07-6.96-10.6-.66-1-1.27-2.1-1.99-3.03-1.65-2.14-4.29-2.12-6.12-.46ZM50.05,20.75c1.9,2.89,3.8,5.78,5.7,8.67.86,1.31,1.72,2.61,2.58,3.92.01.02.02.03.03.04.07.11.14.23.21.34.22.38.44.77.64,1.17.56,1.08,1.05,2.23,1.44,3.41,1.05,3.19,1.37,6.69.53,10-1.22,4.8-4.83,9.04-8.78,10.53-2.54.96-5.02.72-7.55.02-2.87-.78-5.74-1.57-8.61-2.35-1.42-.39-2.84-.77-4.25-1.16-1.04-.28-2.09-.44-2.79-1.56-.74-1.19-.62-2.88.38-3.82.75-.7,1.65-.72,2.53-.48,1.31.35,2.61.71,3.92,1.07,1.13.31,1.99-1.37,1.14-2.4-3.78-4.56-7.56-9.12-11.33-13.67-.01-.01-.03-.02-.04-.03-2.32-2.8-4.68-5.56-6.96-8.4-2.23-2.77.81-6.8,3.22-4.17,1.14,1.25,2.19,2.64,3.27,3.95l3.12,3.77s0,0,0,.01c1.47,1.77,2.93,3.54,4.4,5.3.21.25.41.5.62.75.44.53,1.25.57,1.68,0,.43-.57.47-1.46,0-2.03l-4.37-5.27s0-.01,0-.02c-1.81-2.38.39-6.19,2.82-4.5,1.01.7,1.83,2.07,2.65,3.05,0,0,0,0,.01.01,0,0,0,0,0,0l3.14,3.78.44.54c.44.53,1.25.57,1.68,0,.43-.57.47-1.46,0-2.03l-3.14-3.78c-.15-.18-.3-.36-.44-.54,0,0,0,0,0,0,0,0,0,0,0,0-1.68-2.22.08-5.9,2.54-4.68.9.45,1.67,1.59,2.37,2.52.02.03.03.06.05.09.95,1.15,1.9,2.3,2.86,3.44.13.16.27.32.4.49.44.53,1.25.57,1.68,0,.43-.57.47-1.46,0-2.03-.95-1.15-1.9-2.3-2.86-3.44-.02-.02-.03-.04-.05-.06-.82-1.09-.88-2.62-.05-3.73,2.22-2.43,4.02,1.47,5.19,3.25Z"/>
    <path fill="#b0d9ea" stroke="#073a56" stroke-miterlimit="10" stroke-width=".5"  d="M50.05,20.75c1.9,2.89,3.8,5.78,5.7,8.67.86,1.31,1.72,2.61,2.58,3.92.01.02.02.03.03.04.07.11.14.23.21.34.22.38.44.77.64,1.17.56,1.08,1.05,2.23,1.44,3.41,1.05,3.19,1.37,6.69.53,10-1.22,4.8-4.83,9.04-8.78,10.53-2.54.96-5.02.72-7.55.02-2.87-.78-5.74-1.57-8.61-2.35-1.42-.39-2.84-.77-4.25-1.16-1.04-.28-2.09-.44-2.79-1.56-.74-1.19-.62-2.88.38-3.82.75-.7,1.65-.72,2.53-.48,1.31.35,2.61.71,3.92,1.07,1.13.31,1.99-1.37,1.14-2.4-3.78-4.56-7.56-9.12-11.33-13.67-.01-.01-.03-.02-.04-.03-2.32-2.8-4.68-5.56-6.96-8.4-2.23-2.77.81-6.8,3.22-4.17,1.14,1.25,2.19,2.64,3.27,3.95l3.12,3.77s0,0,0,.01c1.47,1.77,2.93,3.54,4.4,5.3.21.25.41.5.62.75.44.53,1.25.57,1.68,0,.43-.57.47-1.46,0-2.03l-4.37-5.27s0-.01,0-.02c-1.81-2.38.39-6.19,2.82-4.5,1.01.7,1.83,2.07,2.65,3.05,0,0,0,0,.01.01,0,0,0,0,0,0l3.14,3.78.44.54c.44.53,1.25.57,1.68,0,.43-.57.47-1.46,0-2.03l-3.14-3.78c-.15-.18-.3-.36-.44-.54,0,0,0,0,0,0,0,0,0,0,0,0-1.68-2.22.08-5.9,2.54-4.68.9.45,1.67,1.59,2.37,2.52.02.03.03.06.05.09.95,1.15,1.9,2.3,2.86,3.44.13.16.27.32.4.49.44.53,1.25.57,1.68,0,.43-.57.47-1.46,0-2.03-.95-1.15-1.9-2.3-2.86-3.44-.02-.02-.03-.04-.05-.06-.82-1.09-.88-2.62-.05-3.73,2.22-2.43,4.02,1.47,5.19,3.25Z"/>
  </g>
</svg>