<?xml version="1.0" encoding="UTF-8"?>
<svg id="Camada_1" xmlns="http://www.w3.org/2000/svg" version="1.1" viewBox="0 0 64 64">
  <!-- Generator: Adobe Illustrator 29.3.1, SVG Export Plug-In . SVG Version: 2.1.0 Build 151)  -->
  <defs>
    <style>
      .st0 {
        fill: #fff;
      }
    </style>
  </defs>
  <g>
    <path d="M43.47,18.99c-.12.07-.24.17-.35.32-.12.13-.2.27-.25.41-.41.65-.68,1.36-.82,2.1-.91-.72-1.94-1.12-3.21-.83-1.95.44-3.12,2.2-3.43,4.21-.86-.7-1.83-1.12-3.02-.95-2.02.3-3.29,2.01-3.67,4.04-.33-.41-.67-.82-1-1.22-1.23-1.5-2.56-3.69-4.16-4.64-1.02-.61-2.09-.68-3.06-.36l-.43-.53-1.78,2.17h.01c-.88,1.2-1.36,2.84-1.06,4.64.38,2.34,2.2,4.01,3.52,5.61,1.48,1.8,2.96,3.61,4.44,5.41.01.01.03.02.04.03,2.64,3.22,5.28,6.45,7.93,9.67-1.98-.35-3.9-.1-5.17,2.22-1.32,2.41-.71,5.64,1.16,7.33.88.8,1.84,1.04,2.88,1.32,2.97.82,5.95,1.64,8.92,2.47,2.33.64,4.67,1.51,7.07,1.58,8.52.28,15.95-9.64,14.56-19.96-.61-4.54-2.62-8.12-4.89-11.62-2.19-3.37-4.37-6.74-6.56-10.1-.62-.95-1.2-2-1.87-2.89-1.55-2.03-4.04-2.02-5.77-.44Z"/>
    <path d="M44.74,17.44c-.12.07-.24.17-.35.32-.12.13-.2.27-.25.41-.41.65-.68,1.36-.82,2.1-.91-.72-1.94-1.12-3.21-.83-1.95.44-3.12,2.2-3.43,4.21-.86-.7-1.83-1.12-3.02-.95-2.02.3-3.29,2.01-3.67,4.04-.33-.41-.67-.82-1-1.22-1.23-1.5-2.56-3.69-4.16-4.64-3.26-1.94-7.04,1.56-6.32,5.92.38,2.34,2.2,4.01,3.52,5.61l4.44,5.41s.03.02.04.03c2.64,3.22,5.28,6.45,7.93,9.67-1.98-.35-3.9-.1-5.17,2.22-1.32,2.41-.71,5.64,1.16,7.33.88.8,1.84,1.04,2.88,1.32,2.97.82,5.95,1.64,8.92,2.47,2.33.64,4.67,1.51,7.07,1.58,8.52.28,15.95-9.64,14.56-19.96-.61-4.54-2.62-8.12-4.89-11.62-2.19-3.37-4.37-6.74-6.56-10.1-.62-.95-1.2-2-1.87-2.89-1.55-2.03-4.04-2.02-5.77-.44ZM50.86,22.79c1.79,2.76,3.58,5.51,5.37,8.27.81,1.25,1.62,2.49,2.43,3.74.01.02.02.03.03.04.07.11.13.21.19.32.21.37.41.73.61,1.11.52,1.03.99,2.12,1.36,3.25.99,3.04,1.29,6.38.5,9.53-1.15,4.57-4.55,8.61-8.27,10.04-2.39.92-4.73.68-7.12.02-2.7-.75-5.41-1.49-8.11-2.24-1.34-.37-2.67-.74-4.01-1.11-.98-.27-1.97-.42-2.63-1.49-.69-1.14-.58-2.75.36-3.64.7-.67,1.55-.69,2.38-.46,1.23.34,2.46.68,3.69,1.02,1.06.29,1.88-1.31,1.07-2.29-3.56-4.34-7.12-8.69-10.68-13.03-.01-.01-.03-.02-.04-.03-2.19-2.67-4.4-5.3-6.56-8.01-2.1-2.64.76-6.48,3.03-3.97,1.07,1.19,2.06,2.51,3.08,3.76l2.94,3.59s0,0,0,.01c1.38,1.68,2.76,3.37,4.14,5.05.2.24.39.48.59.71.41.5,1.17.54,1.58,0,.41-.55.44-1.39,0-1.93-1.37-1.67-2.74-3.35-4.11-5.02,0,0,0-.01,0-.02-1.7-2.27.36-5.9,2.66-4.29.95.67,1.73,1.97,2.5,2.91,0,0,0,0,0,0,0,0,0,0,0,0l2.95,3.61.42.51c.41.5,1.17.54,1.58,0,.41-.55.44-1.39,0-1.93l-2.95-3.61c-.14-.17-.28-.34-.42-.51,0,0,0,0,0,0,0,0,0,0,0,0-1.58-2.11.08-5.63,2.39-4.46.85.43,1.58,1.52,2.24,2.41.02.03.03.06.05.09.9,1.09,1.79,2.19,2.69,3.28.13.15.25.31.38.46.41.5,1.17.54,1.58,0,.41-.55.44-1.39,0-1.93-.9-1.09-1.79-2.19-2.69-3.28-.02-.02-.03-.04-.05-.06-.77-1.04-.83-2.5-.05-3.56,2.1-2.32,3.79,1.41,4.89,3.09Z"/>
    <path class="st0" d="M50.86,22.79c1.79,2.76,3.58,5.51,5.37,8.27.81,1.25,1.62,2.49,2.43,3.74.01.02.02.03.03.04.07.11.13.21.19.32.21.37.41.73.61,1.11.52,1.03.99,2.12,1.36,3.25.99,3.04,1.29,6.38.5,9.53-1.15,4.57-4.55,8.61-8.27,10.04-2.39.92-4.73.68-7.12.02-2.7-.75-5.41-1.49-8.11-2.24-1.34-.37-2.67-.74-4.01-1.11-.98-.27-1.97-.42-2.63-1.49-.69-1.14-.58-2.75.36-3.64.7-.67,1.55-.69,2.38-.46,1.23.34,2.46.68,3.69,1.02,1.06.29,1.88-1.31,1.07-2.29-3.56-4.34-7.12-8.69-10.68-13.03-.01-.01-.03-.02-.04-.03-2.19-2.67-4.4-5.3-6.56-8.01-2.1-2.64.76-6.48,3.03-3.97,1.07,1.19,2.06,2.51,3.08,3.76l2.94,3.59s0,0,0,.01c1.38,1.68,2.76,3.37,4.14,5.05.2.24.39.48.59.71.41.5,1.17.54,1.58,0,.41-.55.44-1.39,0-1.93-1.37-1.67-2.74-3.35-4.11-5.02,0,0,0-.01,0-.02-1.7-2.27.36-5.9,2.66-4.29.95.67,1.73,1.97,2.5,2.91,0,0,0,0,0,0,0,0,0,0,0,0l2.95,3.61.42.51c.41.5,1.17.54,1.58,0,.41-.55.44-1.39,0-1.93l-2.95-3.61c-.14-.17-.28-.34-.42-.51,0,0,0,0,0,0,0,0,0,0,0,0-1.58-2.11.08-5.63,2.39-4.46.85.43,1.58,1.52,2.24,2.41.02.03.03.06.05.09.9,1.09,1.79,2.19,2.69,3.28.13.15.25.31.38.46.41.5,1.17.54,1.58,0,.41-.55.44-1.39,0-1.93-.9-1.09-1.79-2.19-2.69-3.28-.02-.02-.03-.04-.05-.06-.77-1.04-.83-2.5-.05-3.56,2.1-2.32,3.79,1.41,4.89,3.09Z"/>
  </g>
  <g>
    <g>
      <path d="M5.74,32.97l3.4-4.15.48-.59c.44-.54.48-1.54,0-2.07-.48-.54-1.22-.58-1.7,0l-3.4,4.15c-.16.2-.32.39-.48.59-.44.54-.48,1.54,0,2.07.48.54,1.22.58,1.7,0h0Z"/>
      <g>
        <path d="M1.45,24.88c1.57-.4,3.14-.81,4.71-1.21.22-.06.44-.11.67-.17.61-.16,1.09-.97.93-1.73-.16-.77-.76-1.3-1.42-1.13-1.57.4-3.14.81-4.71,1.21-.22.06-.44.11-.67.17-.61.16-1.09.97-.93,1.73.16.77.76,1.3,1.42,1.13h0Z"/>
        <path d="M10.67,36.13c.33-1.92.66-3.83.99-5.75.05-.27.09-.54.14-.81.13-.75.79-1.33,1.42-1.13.63.2,1.06.93.93,1.73-.33,1.92-.66,3.83-.99,5.75-.05.27-.09.54-.14.81-.13.75-.79,1.33-1.42,1.13-.63-.2-1.06-.93-.93-1.73h0Z"/>
      </g>
    </g>
    <g>
      <path d="M27.23,4.94c-1.13,1.38-2.27,2.77-3.4,4.15-.16.2-.32.39-.48.59-.44.54-.48,1.54,0,2.07.48.54,1.22.58,1.7,0,1.13-1.38,2.27-2.77,3.4-4.15l.48-.59c.44-.54.48-1.54,0-2.07-.48-.54-1.22-.58-1.7,0h0Z"/>
      <g>
        <path d="M31.52,13.03c-1.57.4-3.14.81-4.71,1.21-.22.06-.44.11-.67.17-.61.16-1.09.97-.93,1.73.16.77.76,1.3,1.42,1.13,1.57-.4,3.14-.81,4.71-1.21.22-.06.44-.11.67-.17.61-.16,1.09-.97.93-1.73-.16-.77-.76-1.3-1.42-1.13h0Z"/>
        <path d="M22.3,1.77c-.33,1.92-.66,3.83-.99,5.75-.05.27-.09.54-.14.81-.13.75-.79,1.33-1.42,1.13-.63-.2-1.06-.93-.93-1.73.33-1.92.66-3.83.99-5.75.05-.27.09-.54.14-.81.13-.75.79-1.33,1.42-1.13.63.2,1.06.93.93,1.73h0Z"/>
      </g>
    </g>
  </g>
</svg>